# xmcd
#
# Track frame offsets: 
#        150
#        13193
#        29404
#        46219
#        57047
#        75067
#        89102
#        102307
#        118713
#        135033
#        151481
#        164221
#        177386
#        195178
#        211973
#        228931
#        241464
#        254854
#        270063
#        286112
#        302437
#        318084
#
# Disc length: 4410 seconds
#
# Revision: 0
# Processed by: cddbd v1.5.1PL0 Copyright (c) Steve Scherf et al.
# Submitted via: ExactAudioCopy v0.95a5
#
DISCID=1b113816
DTITLE=Various Artist - Sony-ATV Country Music [CD4: 1980-1985)
DYEAR=2003
DGENRE=Country
TTITLE0=Merle Haggard - The Way I Am
TTITLE1=Alabama - Feels So Right
TTITLE2=John Anderson - I'm Just An Old Chunk Of Coal (But I'm Gonna B
TTITLE2=e A Diamond Someday)
TTITLE3=Johnny Lee - Pickin' Up Strangers
TTITLE4=John Denver - Some Days Are Diamonds (Some Days Are Stones)
TTITLE5=Oak Ridge Boys - I Wish You Could Have Turned My head (And Lef
TTITLE5=t My Heart Alone)
TTITLE6=Don Williams - Mistakes
TTITLE7=Alabama - Mountain Music
TTITLE8=Karla Bonoff - Personally
TTITLE9=Lee Greenwood - Ring On Her Finger, Time On Her Hands
TTITLE10=Michael Martin Murphey - What's Forever For
TTITLE11=John Anderson - Would You Catch A falling Star
TTITLE12=Alabama - Dixieland Delight
TTITLE13=Lee Greenwood - Somebody's Gonna love You
TTITLE14=Waylon Jennings - America
TTITLE15=Vern Gosdin - I Can Tell By The Way You Dance (You're Gonna L
TTITLE15=ove Me Tonight)
TTITLE16=Conway Twitty - I Don't Know A Thing About Love
TTITLE17=Alabama - If You're Gonna Play In Texas
TTITLE18=Charley Pride - Power Of Love
TTITLE19=Don Williams - That's The Thing About Love
TTITLE20=Judds - Why Not Me
TTITLE21=George Strait - The Chair
EXTD=
EXTT0=
EXTT1=
EXTT2=
EXTT3=
EXTT4=
EXTT5=
EXTT6=
EXTT7=
EXTT8=
EXTT9=
EXTT10=
EXTT11=
EXTT12=
EXTT13=
EXTT14=
EXTT15=
EXTT16=
EXTT17=
EXTT18=
EXTT19=
EXTT20=
EXTT21=
PLAYORDER=
